# File created by Blade
# Date/Time:  Mon Sep 22 16:45:27 2014
# Frame Rate: 120.000 fps
#------------------------------------------------------
:FULLY-SPECIFIED
:DEGREES
2700
root 6.255190 39.106906 1.381578 25.257505 26.012101 52.380019
RightUpLeg -1.163871 -23.038393 -41.682003
RightLeg 22.687205 -0.000000 -0.000000
RightFoot -28.625467 -28.245897 17.567360
RightToeBase 5.258759 -0.000000 -0.000000
LeftUpLeg -12.242408 13.639995 28.281931
LeftLeg 119.997864 -0.000000 -0.000000
LeftFoot 19.784608 18.396039 -18.260563
LeftToeBase -2.306741 -0.000000 0.000000
Spine 12.995601 -9.010241 -28.139088
RightShoulder -8.092138 -17.117989 -20.720583
RightArm -12.542711 46.931874 39.455146
RightForeArm 33.487766 0.000000 128.157707
RightHand 4.333603 -0.000000 -3.026982
RightHandThumb1 -24.326973 -0.000000 -32.862282
LeftShoulder -30.996161 33.408066 -9.201854
LeftArm 20.895705 -38.123848 -76.249445
LeftForeArm 9.218628 -0.000000 36.069666
LeftHand -28.314259 0.000000 22.744294
LeftHandThumb1 -26.253704 0.000000 33.147579
Head 5.981906 -19.575793 -17.756957
2701
root 6.272506 39.079570 1.383933 25.234516 25.982893 52.390716
RightUpLeg -1.180835 -23.028347 -41.770819
RightLeg 22.845838 -0.000000 -0.000000
RightFoot -28.795864 -28.085145 17.528010
RightToeBase 5.220579 -0.000000 -0.000000
LeftUpLeg -12.162361 13.615905 28.195070
LeftLeg 120.032922 -0.000000 -0.000000
LeftFoot 19.838750 18.388564 -18.238623
LeftToeBase -2.270254 -0.000000 0.000000
Spine 12.987382 -8.810689 -28.101870
RightShoulder -8.170652 -17.078275 -20.789439
RightArm -12.664624 47.046857 39.426832
RightForeArm 33.436887 0.000000 128.172480
RightHand 4.271764 -0.000000 -2.988881
RightHandThumb1 -24.326973 -0.000000 -32.862282
LeftShoulder -31.054612 33.445820 -9.290373
LeftArm 20.621547 -38.498753 -76.298122
LeftForeArm 9.302191 -0.000000 35.763101
LeftHand -28.350421 -0.000000 22.989618
LeftHandThumb1 -26.253704 0.000000 33.147579
Head 5.773821 -19.726584 -17.668844
2702
root 6.289428 39.053737 1.381556 25.213664 25.964728 52.383575
RightUpLeg -1.257301 -23.052387 -41.836507
RightLeg 23.086377 -0.000000 -0.000000
RightFoot -28.971011 -27.881723 17.487005
RightToeBase 5.286379 -0.000000 -0.000000
LeftUpLeg -12.105533 13.562724 28.109056
LeftLeg 120.097164 -0.000000 -0.000000
LeftFoot 19.851049 18.383667 -18.336364
LeftToeBase -2.207291 -0.000000 0.000000
Spine 13.001619 -8.674975 -28.034585
RightShoulder -8.211162 -17.021954 -20.841888
RightArm -12.789090 47.194754 39.342269
RightForeArm 33.483916 0.000000 128.197468
RightHand 4.272613 -0.000000 -2.893507
RightHandThumb1 -24.326973 -0.000000 -32.862282
LeftShoulder -31.211964 33.414378 -9.466661
LeftArm 20.329924 -38.754140 -76.278774
LeftForeArm 9.201435 -0.000000 35.582513
LeftHand -28.668734 0.000000 23.540663
LeftHandThumb1 -26.253704 0.000000 33.147579
Head 5.500140 -19.868867 -17.607104
2703
root 6.304820 39.028996 1.376417 25.172344 25.955018 52.369524
RightUpLeg -1.325629 -23.069013 -41.891547
RightLeg 23.320408 -0.000000 -0.000000
RightFoot -29.120954 -27.741130 17.407820
RightToeBase 5.317576 -0.000000 -0.000000
LeftUpLeg -12.049905 13.503932 28.014830
LeftLeg 120.152010 -0.000000 -0.000000
LeftFoot 19.934925 18.461645 -18.324858
LeftToeBase -2.305253 -0.000000 0.000000
Spine 13.059624 -8.512670 -27.953583
RightShoulder -8.279474 -16.990570 -20.852597
RightArm -12.922569 47.337466 39.212674
RightForeArm 33.591638 -0.000000 128.235763
RightHand 4.356773 -0.000000 -2.814929
RightHandThumb1 -24.326973 -0.000000 -32.862282
LeftShoulder -31.341952 33.405909 -9.635845
LeftArm 20.061659 -39.020168 -76.338228
LeftForeArm 9.175936 -0.000000 35.488049
LeftHand -28.844329 -0.000000 23.582655
LeftHandThumb1 -26.253704 0.000000 33.147579
Head 5.190503 -20.101241 -17.560563
2704
root 6.323812 39.008738 1.370102 25.139221 25.942119 52.365717
RightUpLeg -1.391938 -23.068152 -41.950746
RightLeg 23.536158 -0.000000 -0.000000
RightFoot -29.267327 -27.632243 17.366553
RightToeBase 5.449548 -0.000000 -0.000000
LeftUpLeg -11.975563 13.406079 27.886147
LeftLeg 120.221219 -0.000000 -0.000000
LeftFoot 19.908682 18.440612 -18.355793
LeftToeBase -2.212528 -0.000000 0.000000
Spine 13.109823 -8.365385 -27.860792
RightShoulder -8.368616 -16.949337 -20.888801
RightArm -12.895791 47.534145 39.247464
RightForeArm 33.604603 -0.000000 128.260178
RightHand 4.334044 0.000000 -2.686009
RightHandThumb1 -24.326973 -0.000000 -32.862282
LeftShoulder -31.439090 33.330884 -9.791827
LeftArm 19.656666 -39.229113 -76.307858
LeftForeArm 9.055534 -0.000000 35.462799
LeftHand -28.930462 0.000000 23.546033
LeftHandThumb1 -26.253704 0.000000 33.147579
Head 4.895716 -20.350270 -17.574305
2705
root 6.339000 38.988226 1.361830 25.108548 25.970015 52.337507
RightUpLeg -1.444452 -23.055238 -41.951057
RightLeg 23.721485 -0.000000 -0.000000
RightFoot -29.431596 -27.610691 17.328722
RightToeBase 5.596538 -0.000000 -0.000000
LeftUpLeg -11.954284 13.305518 27.789734
LeftLeg 120.282059 -0.000000 -0.000000
LeftFoot 19.994684 18.523971 -18.360922
LeftToeBase -2.315872 -0.000000 0.000000
Spine 13.151500 -8.248544 -27.724855
RightShoulder -8.404607 -16.899009 -20.931146
RightArm -12.987946 47.696425 39.204263
RightForeArm 33.644525 -0.000000 128.295687
RightHand 4.413077 -0.000000 -2.693416
RightHandThumb1 -24.326973 -0.000000 -32.862282
LeftShoulder -31.574332 33.359408 -9.964519
LeftArm 19.505181 -39.508100 -76.557871
LeftForeArm 9.044050 -0.000000 35.416855
LeftHand -29.038892 -0.000000 23.716792
LeftHandThumb1 -26.253704 0.000000 33.147579
Head 4.678788 -20.557020 -17.601740
